{"title":"Manhunter 1986 DVDRip Xvid BigPerm LKRG","uid":6952518,"size":1150538507,"categoryP":"video","categoryS":"movies","magnet":"?xt=urn:btih:55ab77547ef1583ba209c2ef47cae85e9b77cb1f&amp;dn=Manhunter+1986+DVDRip+Xvid+BigPerm+LKRG&amp;tr=udp%3A%2F%2Ftracker.openbittorrent.com%3A80&amp;tr=udp%3A%2F%2Fopen.demonii.com%3A1337&amp;tr=udp%3A%2F%2Ftracker.coppersurfer.tk%3A6969&amp;tr=udp%3A%2F%2Fexodus.desync.com%3A6969","seeders":0,"leechers":1,"uploader":".BONE.","files":2,"time":1326455364,"description":"PLOT\n\nAn FBI specialist tracks a serial killer who appears to select his victims at random.\n\nEncoded By .......: BigPerm\nRuntime ..........: 1h 59mn\nFile Size ........: 1.07 GB\nResolution .......: 704 x 396 &lt;a href=&quot;\nhttp://www.imdb.com/title/tt0091474/&quot; rel=&quot;nofollow&quot; target=&quot;_NEW&quot;&gt;\nhttp://www.imdb.com/title/tt0091474/&lt;/a&gt;\nGenre ............: Crime,Drama,Mystery\nLanguage .........: English\nSubtitles ........: None\nVideo\nID : 0\nFormat : MPEG-4 Visual\nFormat profile : Advanced Simple@L5\nFormat settings, BVOP : Yes\nFormat settings, QPel : No\nFormat settings, GMC : No warppoints\nFormat settings, Matrix : Default (H.263)\nCodec ID : XVID\nCodec ID/Hint : XviD\nDuration : 1h 59mn\nBit rate : 36.4 Kbps\nWidth : 704 pixels\nHeight : 396 pixels\nDisplay aspect ratio : 16:9\nFrame rate : 23.976 fps\nColor space : YUV\nChroma subsampling : 4:2:0\nBit depth : 8 bits\nScan type : Progressive\nCompression mode : Lossy\nBits/(Pixel*Frame) : 0.005\nStream size : 31.2 MiB (3%)\nWriting library : XviD 1.2.1 (UTC 2008-12-04)\nAudio\nID : 1\nFormat : AC-3\nFormat/Info : Audio Coding 3\nCodec ID : 2000\nDuration : 1h 59mn\nBit rate mode : Constant\nBit rate : 448 Kbps\nChannel(s) : 6 channels\nSampling rate : 48.0 KHz\nBit depth : 16 bits\nCompression mode : Lossy\nStream size : 384 MiB (35%)\nAlignment : Aligned on interleaves","torrent":{"xt":"urn:btih:55ab77547ef1583ba209c2ef47cae85e9b77cb1f","amp;dn":"Manhunter+1986+DVDRip+Xvid+BigPerm+LKRG","amp;tr":["udp%3A%2F%2Ftracker.openbittorrent.com%3A80","udp%3A%2F%2Fopen.demonii.com%3A1337","udp%3A%2F%2Ftracker.coppersurfer.tk%3A6969","udp%3A%2F%2Fexodus.desync.com%3A6969"],"infoHash":"55ab77547ef1583ba209c2ef47cae85e9b77cb1f","infoHashBuffer":{"type":"Buffer","data":[85,171,119,84,126,241,88,59,162,9,194,239,71,202,232,94,155,119,203,31]},"announce":[],"urlList":[]}}